<svg width="618.8450073242187px" height="143.84000549316406px" xmlns="http://www.w3.org/2000/svg" viewBox="-59.422503662109364 3.0799972534179716 618.8450073242187 143.84000549316406" style="background: none;" preserveAspectRatio="xMidYMid"><defs><linearGradient id="editing-glowing-gradient" x1="0.4390653282974263" x2="0.5609346717025737" y1="0.0037269241793390084" y2="0.996273075820661"><stop offset="0" stop-color="#570274"></stop><stop offset="1" stop-color="#9304bf"></stop></linearGradient><filter id="editing-glowing" x="-100%" y="-100%" width="300%" height="300%"><feGaussianBlur in="SourceGraphic" result="blur" stdDeviation="6"></feGaussianBlur><feMerge><feMergeNode in="blur"></feMergeNode><feMergeNode in="SourceGraphic"></feMergeNode></feMerge></filter></defs><g filter="url(#editing-glowing)"><g transform="translate(28.145019054412842, 110.625)"><path d="M7.06-4.03L7.06-4.03L7.06-4.03Q7.06-4.63 7.22-5.31L7.22-5.31L7.22-5.31Q7.38-5.99 7.56-6.56L7.56-6.56L7.88-7.70L7.06-50.33L7.06-50.33Q7.06-52.08 7.47-53.04L7.47-53.04L7.47-53.04Q7.88-54.00 8.52-54.46L8.52-54.46L8.52-54.46Q9.16-54.93 10.00-55.00L10.00-55.00L10.00-55.00Q10.84-55.07 11.69-55.07L11.69-55.07L30.48-55.07L30.48-55.07Q31.12-55.14 31.92-55.27L31.92-55.27L31.92-55.27Q32.72-55.39 33.04-55.39L33.04-55.39L33.04-55.39Q34.40-55.39 35.23-55.14L35.23-55.14L35.23-55.14Q36.07-54.89 36.55-54.41L36.55-54.41L36.55-54.41Q37.03-53.93 37.20-53.22L37.20-53.22L37.20-53.22Q37.36-52.50 37.36-51.54L37.36-51.54L37.36-51.54Q37.36-50.19 37.02-49.37L37.02-49.37L37.02-49.37Q36.68-48.55 36.09-48.10L36.09-48.10L36.09-48.10Q35.50-47.66 34.72-47.51L34.72-47.51L34.72-47.51Q33.93-47.37 33.04-47.37L33.04-47.37L33.04-47.37Q32.65-47.37 32.01-47.39L32.01-47.39L32.01-47.39Q31.37-47.41 30.65-47.48L30.65-47.48L30.65-47.48Q27.20-47.48 25.08-47.48L25.08-47.48L25.08-47.48Q22.96-47.48 21.69-47.46L21.69-47.46L21.69-47.46Q20.42-47.44 19.76-47.44L19.76-47.44L19.76-47.44Q19.11-47.44 18.61-47.44L18.61-47.44L15.29-47.44L15.29-36.14L15.29-36.14Q15.51-36.14 15.81-36.13L15.81-36.13L15.81-36.13Q16.11-36.11 16.75-36.11L16.75-36.11L16.75-36.11Q17.39-36.11 18.52-36.11L18.52-36.11L18.52-36.11Q19.64-36.11 21.53-36.11L21.53-36.11L21.53-36.11Q23.42-36.11 26.20-36.11L26.20-36.11L26.20-36.11Q28.98-36.11 32.94-36.11L32.94-36.11L32.94-36.11Q33.33-36.11 33.83-36.14L33.83-36.14L33.83-36.14Q34.33-36.18 34.82-36.25L34.82-36.25L34.82-36.25Q35.47-36.32 36.32-36.39L36.32-36.39L36.32-36.39Q37.18-36.46 38.18-36.46L38.18-36.46L38.18-36.46Q39.14-36.46 39.89-36.07L39.89-36.07L39.89-36.07Q40.63-35.68 41.15-35.09L41.15-35.09L41.15-35.09Q41.67-34.50 41.94-33.83L41.94-33.83L41.94-33.83Q42.20-33.15 42.20-32.54L42.20-32.54L42.20-32.54Q42.20-30.62 40.94-29.73L40.94-29.73L40.94-29.73Q39.67-28.84 37.68-28.84L37.68-28.84L15.29-28.80L15.29-7.45L15.29-7.45Q18.82-7.45 22.38-7.34L22.38-7.34L22.38-7.34Q25.95-7.24 29.83-7.24L29.83-7.24L29.83-7.24Q30.90-7.24 31.79-7.34L31.79-7.34L31.79-7.34Q32.69-7.45 33.51-7.59L33.51-7.59L33.51-7.59Q34.25-7.70 35.02-7.79L35.02-7.79L35.02-7.79Q35.79-7.88 36.71-7.88L36.71-7.88L36.71-7.88Q37.78-7.88 38.69-7.72L38.69-7.72L38.69-7.72Q39.60-7.56 40.28-7.15L40.28-7.15L40.28-7.15Q40.96-6.74 41.35-6.04L41.35-6.04L41.35-6.04Q41.74-5.35 41.74-4.28L41.74-4.28L41.74-4.28Q41.74-2.71 41.21-1.85L41.21-1.85L41.21-1.85Q40.67-1.00 39.76-0.59L39.76-0.59L39.76-0.59Q38.85-0.18 37.69-0.09L37.69-0.09L37.69-0.09Q36.54 0 35.29 0L35.29 0L11.30 0L11.30 0Q10.37 0 9.61-0.21L9.61-0.21L9.61-0.21Q8.84-0.43 8.27-0.91L8.27-0.91L8.27-0.91Q7.70-1.39 7.38-2.16L7.38-2.16L7.38-2.16Q7.06-2.92 7.06-4.03ZM57.14-2.60L57.14-2.60L57.14-2.60Q57.14-4.42 57.41-6.17L57.41-6.17L57.41-6.17Q57.67-7.91 57.67-9.87L57.67-9.87L57.67-9.87Q57.67-11.33 57.66-12.76L57.66-12.76L57.66-12.76Q57.64-14.19 57.62-15.79L57.62-15.79L57.62-15.79Q57.60-17.39 57.57-19.30L57.57-19.30L57.57-19.30Q57.53-21.21 57.48-23.63L57.48-23.63L57.48-23.63Q57.42-26.06 57.35-29.12L57.35-29.12L57.35-29.12Q57.28-32.19 57.21-36.14L57.21-36.14L57.21-36.14Q56.75-36.07 56.16-36.02L56.16-36.02L56.16-36.02Q55.57-35.97 54.68-35.97L54.68-35.97L54.68-35.97Q54.04-35.97 53.36-36.18L53.36-36.18L53.36-36.18Q52.68-36.39 52.15-36.84L52.15-36.84L52.15-36.84Q51.61-37.28 51.26-38.01L51.26-38.01L51.26-38.01Q50.90-38.75 50.90-39.81L50.90-39.81L50.90-39.81Q50.90-41.74 51.90-42.72L51.90-42.72L51.90-42.72Q52.90-43.70 54.32-43.70L54.32-43.70L54.32-43.70Q54.89-43.70 55.43-43.56L55.43-43.56L55.43-43.56Q55.96-43.42 56.57-43.42L56.57-43.42L56.57-43.42Q57.99-43.42 59.40-43.56L59.40-43.56L59.40-43.56Q60.81-43.70 62.38-43.70L62.38-43.70L62.38-43.70Q63.91-43.70 64.50-42.74L64.50-42.74L64.50-42.74Q65.09-41.78 65.09-40.03L65.09-40.03L65.09-39.32L65.09-39.32Q67.90-41.67 71.04-42.79L71.04-42.79L71.04-42.79Q74.18-43.91 76.89-43.91L76.89-43.91L76.89-43.91Q81.34-43.91 84.80-42.63L84.80-42.63L84.80-42.63Q88.26-41.35 90.68-38.82L90.68-38.82L90.68-38.82Q92.18-40.03 93.82-40.99L93.82-40.99L93.82-40.99Q95.46-41.95 97.11-42.60L97.11-42.60L97.11-42.60Q98.77-43.24 100.38-43.58L100.38-43.58L100.38-43.58Q101.98-43.91 103.44-43.91L103.44-43.91L103.44-43.91Q107.93-43.91 111.60-42.58L111.60-42.58L111.60-42.58Q115.27-41.24 117.89-38.64L117.89-38.64L117.89-38.64Q120.51-36.04 121.94-32.24L121.94-32.24L121.94-32.24Q123.37-28.44 123.37-23.49L123.37-23.49L123.37-23.49Q123.37-21.92 123.17-19.94L123.17-19.94L123.17-19.94Q122.97-17.96 122.62-15.88L122.62-15.88L122.62-15.88Q122.26-13.79 121.76-11.78L121.76-11.78L121.76-11.78Q121.26-9.77 120.69-8.16L120.69-8.16L120.69-8.16Q121.16-8.31 121.44-8.34L121.44-8.34L121.44-8.34Q121.73-8.38 121.94-8.38L121.94-8.38L121.94-8.38Q123.19-8.38 123.94-7.91L123.94-7.91L123.94-7.91Q124.68-7.45 125.09-6.81L125.09-6.81L125.09-6.81Q125.50-6.17 125.63-5.47L125.63-5.47L125.63-5.47Q125.75-4.78 125.75-4.31L125.75-4.31L125.75-4.31Q125.75-3.21 125.36-2.51L125.36-2.51L125.36-2.51Q124.97-1.82 123.99-1.34L123.99-1.34L123.99-1.34Q123.01-0.86 121.35-0.46L121.35-0.46L121.35-0.46Q119.69-0.07 117.16 0.46L117.16 0.46L117.16 0.46Q116.06 0.75 115.36 0.93L115.36 0.93L115.36 0.93Q114.67 1.10 114.10 1.10L114.10 1.10L114.10 1.10Q112.96 1.10 112.14 0.77L112.14 0.77L112.14 0.77Q111.32 0.43 110.80-0.12L110.80-0.12L110.80-0.12Q110.28-0.68 110.03-1.44L110.03-1.44L110.03-1.44Q109.79-2.21 109.79-3.07L109.79-3.07L109.79-3.07Q109.79-3.99 110.28-5.15L110.28-5.15L110.28-5.15Q110.78-6.31 111.60-7.24L111.60-7.24L111.60-7.24Q112.42-8.59 113.10-10.53L113.10-10.53L113.10-10.53Q113.78-12.48 114.26-14.69L114.26-14.69L114.26-14.69Q114.74-16.90 114.99-19.18L114.99-19.18L114.99-19.18Q115.24-21.46 115.24-23.49L115.24-23.49L115.24-23.49Q115.24-26.34 114.54-28.69L114.54-28.69L114.54-28.69Q113.85-31.05 112.37-32.72L112.37-32.72L112.37-32.72Q110.89-34.40 108.63-35.32L108.63-35.32L108.63-35.32Q106.36-36.25 103.26-36.25L103.26-36.25L103.26-36.25Q101.69-36.25 100.46-36.02L100.46-36.02L100.46-36.02Q99.23-35.79 98.18-35.36L98.18-35.36L98.18-35.36Q97.13-34.93 96.20-34.29L96.20-34.29L96.20-34.29Q95.28-33.65 94.35-32.79L94.35-32.79L94.35-32.79Q95.81-28.80 95.81-23.49L95.81-23.49L95.81-23.49Q95.81-21.89 95.60-19.85L95.60-19.85L95.60-19.85Q95.38-17.82 94.99-15.68L94.99-15.68L94.99-15.68Q94.60-13.54 93.99-11.48L93.99-11.48L93.99-11.48Q93.39-9.41 92.64-7.70L92.64-7.70L92.64-7.70Q93.21-7.81 93.82-8.04L93.82-8.04L93.82-8.04Q94.42-8.27 95.14-8.27L95.14-8.27L95.14-8.27Q96.31-8.27 97.04-7.81L97.04-7.81L97.04-7.81Q97.77-7.34 98.15-6.68L98.15-6.68L98.15-6.68Q98.52-6.02 98.65-5.26L98.65-5.26L98.65-5.26Q98.77-4.49 98.77-3.89L98.77-3.89L98.77-3.89Q98.77-2.74 98.33-2.09L98.33-2.09L98.33-2.09Q97.88-1.43 97.17-1.05L97.17-1.05L97.17-1.05Q96.45-0.68 95.53-0.52L95.53-0.52L95.53-0.52Q94.60-0.36 93.64-0.25L93.64-0.25L93.64-0.25Q92.68-0.14 91.77 0.02L91.77 0.02L91.77 0.02Q90.86 0.18 90.15 0.53L90.15 0.53L90.15 0.53Q90.04 0.61 89.65 0.70L89.65 0.70L89.65 0.70Q89.25 0.78 88.81 0.87L88.81 0.87L88.81 0.87Q88.36 0.96 87.92 1.03L87.92 1.03L87.92 1.03Q87.47 1.10 87.22 1.10L87.22 1.10L87.22 1.10Q86.05 1.10 85.23 0.68L85.23 0.68L85.23 0.68Q84.41 0.25 83.89-0.43L83.89-0.43L83.89-0.43Q83.37-1.10 83.14-1.92L83.14-1.92L83.14-1.92Q82.91-2.74 82.91-3.53L82.91-3.53L82.91-3.53Q82.91-4.46 83.19-5.40L83.19-5.40L83.19-5.40Q83.48-6.34 83.98-7.16L83.98-7.16L83.98-7.16Q84.76-8.59 85.44-10.57L85.44-10.57L85.44-10.57Q86.12-12.55 86.60-14.74L86.60-14.74L86.60-14.74Q87.08-16.93 87.36-19.19L87.36-19.19L87.36-19.19Q87.65-21.46 87.65-23.49L87.65-23.49L87.65-23.49Q87.65-26.34 87.10-28.69L87.10-28.69L87.10-28.69Q86.54-31.05 85.26-32.72L85.26-32.72L85.26-32.72Q83.98-34.40 81.89-35.32L81.89-35.32L81.89-35.32Q79.81-36.25 76.74-36.25L76.74-36.25L76.74-36.25Q73.71-36.25 70.81-34.95L70.81-34.95L70.81-34.95Q67.90-33.65 65.09-30.80L65.09-30.80L65.09-30.80Q65.09-29.19 65.07-26.82L65.07-26.82L65.07-26.82Q65.05-24.45 65.05-21.81L65.05-21.81L65.05-21.81Q65.05-19.18 65.05-16.57L65.05-16.57L65.05-16.57Q65.05-13.97 65.07-11.91L65.07-11.91L65.07-11.91Q65.09-9.84 65.10-8.57L65.10-8.57L65.10-8.57Q65.12-7.31 65.16-7.41L65.16-7.41L65.16-7.41Q65.80-7.59 66.21-7.72L66.21-7.72L66.21-7.72Q66.62-7.84 66.89-7.91L66.89-7.91L66.89-7.91Q67.15-7.98 67.30-8.00L67.30-8.00L67.30-8.00Q67.44-8.02 67.62-8.02L67.62-8.02L67.62-8.02Q69.54-8.02 70.54-7.08L70.54-7.08L70.54-7.08Q71.54-6.13 71.54-4.31L71.54-4.31L71.54-4.31Q71.54-2.96 71.00-2.17L71.00-2.17L71.00-2.17Q70.47-1.39 69.65-0.93L69.65-0.93L69.65-0.93Q68.83-0.46 67.80-0.27L67.80-0.27L67.80-0.27Q66.76-0.07 65.80 0.04L65.80 0.04L65.80 0.04Q65.19 0.11 64.55 0.29L64.55 0.29L64.55 0.29Q63.91 0.46 63.27 0.64L63.27 0.64L63.27 0.64Q62.63 0.82 61.99 0.96L61.99 0.96L61.99 0.96Q61.34 1.10 60.81 1.10L60.81 1.10L60.81 1.10Q58.71 1.10 57.92 0.12L57.92 0.12L57.92 0.12Q57.14-0.86 57.14-2.60ZM138.44-3.17L138.44-3.17L138.44-3.17Q138.44-4.42 138.48-5.67L138.48-5.67L138.48-5.67Q138.51-6.92 138.55-8.41L138.55-8.41L138.55-35.89L138.55-35.89Q138.55-36.89 138.34-37.91L138.34-37.91L138.34-37.91Q138.12-38.92 138.12-40.03L138.12-40.03L138.12-40.03Q138.12-41.92 139.48-42.92L139.48-42.92L139.48-42.92Q140.83-43.91 143.15-43.91L143.15-43.91L143.15-43.91Q144.15-43.91 144.90-43.58L144.90-43.58L144.90-43.58Q145.64-43.24 146.14-42.70L146.14-42.70L146.14-42.70Q146.64-42.17 146.89-41.49L146.89-41.49L146.89-41.49Q147.14-40.81 147.14-40.10L147.14-40.10L147.14-40.10Q147.14-39.49 147.05-38.87L147.05-38.87L147.05-38.87Q146.96-38.25 146.86-37.64L146.86-37.64L146.86-37.64Q152.31-39.00 156.14-40.10L156.14-40.10L156.14-40.10Q159.97-41.21 162.15-41.92L162.15-41.92L162.15-41.92Q162.61-42.74 163.45-43.33L163.45-43.33L163.45-43.33Q164.29-43.91 165.64-43.91L165.64-43.91L165.64-43.91Q167.60-43.91 168.76-42.90L168.76-42.90L168.76-42.90Q169.92-41.88 169.92-40.35L169.92-40.35L169.92-40.35Q169.92-39.74 169.85-39.10L169.85-39.10L169.85-39.10Q169.77-38.46 169.77-37.82L169.77-37.82L169.77-37.82Q169.56-35.64 169.69-33.40L169.69-33.40L169.69-33.40Q169.81-31.15 169.99-28.87L169.99-28.87L169.99-28.87Q170.06-28.16 170.08-27.36L170.08-27.36L170.08-27.36Q170.10-26.56 170.10-25.74L170.10-25.74L170.10-25.74Q170.10-24.88 169.67-24.31L169.67-24.31L169.67-24.31Q169.24-23.74 168.58-23.40L168.58-23.40L168.58-23.40Q167.92-23.06 167.14-22.92L167.14-22.92L167.14-22.92Q166.35-22.78 165.60-22.78L165.60-22.78L165.60-22.78Q164.54-22.78 163.82-23.15L163.82-23.15L163.82-23.15Q163.11-23.53 162.66-24.11L162.66-24.11L162.66-24.11Q162.22-24.70 162.02-25.43L162.02-25.43L162.02-25.43Q161.83-26.16 161.83-26.88L161.83-26.88L161.83-26.88Q161.83-28.52 161.86-30.21L161.86-30.21L161.86-30.21Q161.90-31.90 161.93-33.93L161.93-33.93L161.93-33.93Q160.58-33.61 158.21-33.08L158.21-33.08L158.21-33.08Q155.84-32.54 153.02-31.94L153.02-31.94L153.02-31.94Q151.42-31.55 149.85-31.21L149.85-31.21L149.85-31.21Q148.28-30.87 146.68-30.51L146.68-30.51L146.68-7.24L147.75-7.56L147.75-7.56Q148.46-7.81 149.10-8.00L149.10-8.00L149.10-8.00Q149.74-8.20 150.56-8.27L150.56-8.27L150.56-8.27Q151.24-8.20 151.90-7.95L151.90-7.95L151.90-7.95Q152.56-7.70 153.08-7.24L153.08-7.24L153.08-7.24Q153.59-6.77 153.91-6.08L153.91-6.08L153.91-6.08Q154.23-5.38 154.23-4.49L154.23-4.49L154.23-4.49Q154.23-3.67 153.97-2.92L153.97-2.92L153.97-2.92Q153.70-2.17 153.24-1.59L153.24-1.59L153.24-1.59Q152.77-1.00 152.15-0.62L152.15-0.62L152.15-0.62Q151.52-0.25 150.78-0.21L150.78-0.21L150.78-0.21Q150.28-0.14 149.42 0.02L149.42 0.02L149.42 0.02Q148.57 0.18 147.43 0.39L147.43 0.39L147.43 0.39Q145.61 0.75 144.49 0.89L144.49 0.89L144.49 0.89Q143.36 1.03 142.61 1.03L142.61 1.03L142.61 1.03Q141.79 1.03 141.03 0.77L141.03 0.77L141.03 0.77Q140.26 0.50 139.69-0.04L139.69-0.04L139.69-0.04Q139.12-0.57 138.78-1.35L138.78-1.35L138.78-1.35Q138.44-2.14 138.44-3.17ZM188.17-16.08L188.17-16.08L188.17-16.08Q188.84-13.40 190.18-11.60L190.18-11.60L190.18-11.60Q191.52-9.80 193.19-8.70L193.19-8.70L193.19-8.70Q194.87-7.59 196.74-7.11L196.74-7.11L196.74-7.11Q198.61-6.63 200.39-6.63L200.39-6.63L200.39-6.63Q203.17-6.63 205.35-7.11L205.35-7.11L205.35-7.11Q207.52-7.59 209.07-8.29L209.07-8.29L209.07-8.29Q210.62-8.98 211.59-9.73L211.59-9.73L211.59-9.73Q212.55-10.48 212.94-11.05L212.94-11.05L212.94-11.05Q213.30-11.58 213.74-12.07L213.74-12.07L213.74-12.07Q214.19-12.55 214.70-12.92L214.70-12.92L214.70-12.92Q215.22-13.30 215.74-13.51L215.74-13.51L215.74-13.51Q216.26-13.72 216.72-13.72L216.72-13.72L216.72-13.72Q218.50-13.72 219.48-12.67L219.48-12.67L219.48-12.67Q220.46-11.62 220.46-9.84L220.46-9.84L220.46-9.84Q220.46-9.16 219.96-8.13L219.96-8.13L219.96-8.13Q219.46-7.09 218.11-5.85L218.11-5.85L218.11-5.85Q216.61-4.46 214.78-3.21L214.78-3.21L214.78-3.21Q212.94-1.96 210.73-1.02L210.73-1.02L210.73-1.02Q208.52-0.07 205.94 0.48L205.94 0.48L205.94 0.48Q203.35 1.03 200.36 1.03L200.36 1.03L200.36 1.03Q196.83 1.03 193.91 0.09L193.91 0.09L193.91 0.09Q190.98-0.86 188.67-2.48L188.67-2.48L188.67-2.48Q186.35-4.10 184.64-6.24L184.64-6.24L184.64-6.24Q182.93-8.38 181.79-10.80L181.79-10.80L181.79-10.80Q180.65-13.22 180.08-15.79L180.08-15.79L180.08-15.79Q179.51-18.36 179.51-20.78L179.51-20.78L179.51-20.78Q179.51-26.06 181.22-30.32L181.22-30.32L181.22-30.32Q182.93-34.58 185.92-37.60L185.92-37.60L185.92-37.60Q188.92-40.63 193.02-42.27L193.02-42.27L193.02-42.27Q197.11-43.91 201.89-43.91L201.89-43.91L201.89-43.91Q205.31-43.91 208.31-42.90L208.31-42.90L208.31-42.90Q211.30-41.88 213.64-40.05L213.64-40.05L213.64-40.05Q215.97-38.21 217.56-35.66L217.56-35.66L217.56-35.66Q219.14-33.11 219.78-30.05L219.78-30.05L219.78-30.05Q220.50-29.44 220.84-28.46L220.84-28.46L220.84-28.46Q221.17-27.48 221.17-26.52L221.17-26.52L221.17-26.52Q221.17-24.92 220.09-23.90L220.09-23.90L220.09-23.90Q219-22.88 217.36-22.49L217.36-22.49L217.36-22.49Q213.76-21.56 210.16-20.78L210.16-20.78L210.16-20.78Q206.56-20.00 202.92-19.25L202.92-19.25L202.92-19.25Q199.29-18.50 195.60-17.72L195.60-17.72L195.60-17.72Q191.91-16.93 188.17-16.08ZM187.56-22.67L187.56-22.67L187.56-22.67Q193.62-24.10 199.82-25.34L199.82-25.34L199.82-25.34Q206.03-26.59 212.44-28.12L212.44-28.12L212.44-28.12Q211.84-29.76 210.80-31.24L210.80-31.24L210.80-31.24Q209.77-32.72 208.38-33.83L208.38-33.83L208.38-33.83Q206.99-34.93 205.29-35.57L205.29-35.57L205.29-35.57Q203.60-36.21 201.64-36.21L201.64-36.21L201.64-36.21Q198.61-36.21 196.13-35.23L196.13-35.23L196.13-35.23Q193.66-34.25 191.84-32.49L191.84-32.49L191.84-32.49Q190.02-30.73 188.92-28.21L188.92-28.21L188.92-28.21Q187.81-25.70 187.56-22.67ZM257.96 0L257.96 0ZM257.96-27.55L257.96-27.55L257.96-27.55Q257.96-33.90 259.76-39.14L259.76-39.14L259.76-39.14Q261.56-44.38 264.86-48.16L264.86-48.16L264.86-48.16Q268.15-51.93 272.81-54.02L272.81-54.02L272.81-54.02Q277.46-56.10 283.12-56.10L283.12-56.10L283.12-56.10Q289.11-56.10 293.69-54.02L293.69-54.02L293.69-54.02Q298.27-51.93 301.39-48.16L301.39-48.16L301.39-48.16Q304.51-44.38 306.12-39.14L306.12-39.14L306.12-39.14Q307.72-33.90 307.72-27.55L307.72-27.55L307.72-27.55Q307.72-21.53 305.97-16.31L305.97-16.31L305.97-16.31Q304.23-11.09 300.98-7.24L300.98-7.24L300.98-7.24Q297.74-3.39 293.14-1.18L293.14-1.18L293.14-1.18Q288.54 1.03 282.84 1.03L282.84 1.03L282.84 1.03Q279.06 1.03 275.75 0.04L275.75 0.04L275.75 0.04Q272.43-0.96 269.67-2.82L269.67-2.82L269.67-2.82Q266.91-4.67 264.73-7.25L264.73-7.25L264.73-7.25Q262.56-9.84 261.04-13.01L261.04-13.01L261.04-13.01Q259.53-16.18 258.74-19.85L258.74-19.85L258.74-19.85Q257.96-23.53 257.96-27.55ZM266.09-27.55L266.09-27.55L266.09-27.55Q266.09-24.88 266.59-22.26L266.59-22.26L266.59-22.26Q267.08-19.64 268.06-17.27L268.06-17.27L268.06-17.27Q269.04-14.90 270.49-12.89L270.49-12.89L270.49-12.89Q271.93-10.87 273.80-9.39L273.80-9.39L273.80-9.39Q275.67-7.91 277.97-7.08L277.97-7.08L277.97-7.08Q280.27-6.24 282.95-6.24L282.95-6.24L282.95-6.24Q285.76-6.24 288.08-7.08L288.08-7.08L288.08-7.08Q290.40-7.91 292.25-9.39L292.25-9.39L292.25-9.39Q294.10-10.87 295.48-12.89L295.48-12.89L295.48-12.89Q296.85-14.90 297.76-17.27L297.76-17.27L297.76-17.27Q298.67-19.64 299.11-22.26L299.11-22.26L299.11-22.26Q299.56-24.88 299.56-27.55L299.56-27.55L299.56-27.55Q299.56-31.83 298.56-35.66L298.56-35.66L298.56-35.66Q297.56-39.49 295.51-42.42L295.51-42.42L295.51-42.42Q293.46-45.34 290.34-47.05L290.34-47.05L290.34-47.05Q287.22-48.76 282.95-48.76L282.95-48.76L282.95-48.76Q278.92-48.76 275.78-47.23L275.78-47.23L275.78-47.23Q272.65-45.70 270.49-42.92L270.49-42.92L270.49-42.92Q268.33-40.14 267.21-36.23L267.21-36.23L267.21-36.23Q266.09-32.33 266.09-27.55ZM274.36-58.78L274.36-58.78L274.36-58.78Q273.71-58.78 273.02-59.05L273.02-59.05L273.02-59.05Q272.32-59.31 271.75-59.81L271.75-59.81L271.75-59.81Q271.18-60.31 270.81-60.99L270.81-60.99L270.81-60.99Q270.44-61.67 270.44-62.52L270.44-62.52L270.44-62.52Q270.44-63.66 271.02-65.00L271.02-65.00L271.02-65.00Q271.61-66.33 272.52-67.48L272.52-67.48L272.52-67.48Q273.43-68.62 274.50-69.38L274.50-69.38L274.50-69.38Q275.57-70.15 276.49-70.15L276.49-70.15L276.49-70.15Q277.31-70.15 278.08-69.79L278.08-69.79L278.08-69.79Q278.85-69.44 279.44-68.85L279.44-68.85L279.44-68.85Q280.02-68.26 280.38-67.53L280.38-67.53L280.38-67.53Q280.74-66.80 280.74-66.05L280.74-66.05L280.74-66.05Q280.74-65.12 280.09-63.86L280.09-63.86L280.09-63.86Q279.45-62.59 278.49-61.47L278.49-61.47L278.49-61.47Q277.53-60.35 276.41-59.56L276.41-59.56L276.41-59.56Q275.28-58.78 274.36-58.78ZM289.93-58.53L289.93-58.53L289.93-58.53Q289.29-58.53 288.60-58.80L288.60-58.80L288.60-58.80Q287.90-59.06 287.33-59.56L287.33-59.56L287.33-59.56Q286.76-60.06 286.39-60.76L286.39-60.76L286.39-60.76Q286.01-61.45 286.01-62.27L286.01-62.27L286.01-62.27Q286.01-63.41 286.71-64.71L286.71-64.71L286.71-64.71Q287.40-66.01 288.44-67.14L288.44-67.14L288.44-67.14Q289.47-68.26 290.63-68.99L290.63-68.99L290.63-68.99Q291.79-69.72 292.75-69.72L292.75-69.72L292.75-69.72Q293.57-69.72 294.28-69.36L294.28-69.36L294.28-69.36Q294.99-69.01 295.51-68.42L295.51-68.42L295.51-68.42Q296.03-67.83 296.31-67.07L296.31-67.07L296.31-67.07Q296.60-66.30 296.60-65.44L296.60-65.44L296.60-65.41L296.60-65.41Q296.60-64.48 295.90-63.29L295.90-63.29L295.90-63.29Q295.21-62.09 294.19-61.04L294.19-61.04L294.19-61.04Q293.18-59.99 292.02-59.26L292.02-59.26L292.02-59.26Q290.86-58.53 289.93-58.53ZM316.92-21.53L316.92-21.53L316.92-21.53Q316.92-24.42 317.50-27.20L317.50-27.20L317.50-27.20Q318.09-29.98 319.32-32.47L319.32-32.47L319.32-32.47Q320.55-34.97 322.42-37.05L322.42-37.05L322.42-37.05Q324.29-39.14 326.88-40.67L326.88-40.67L326.88-40.67Q329.46-42.20 332.76-43.06L332.76-43.06L332.76-43.06Q336.06-43.91 340.16-43.91L340.16-43.91L340.16-43.91Q342.72-43.91 344.93-43.34L344.93-43.34L344.93-43.34Q347.14-42.77 348.64-41.81L348.64-41.81L348.64-41.81Q348.82-42.88 349.26-43.56L349.26-43.56L349.26-43.56Q349.71-44.23 350.30-44.61L350.30-44.61L350.30-44.61Q350.88-44.98 351.56-45.13L351.56-45.13L351.56-45.13Q352.24-45.27 352.88-45.27L352.88-45.27L352.88-45.27Q354.59-45.27 355.55-44.34L355.55-44.34L355.55-44.34Q356.52-43.42 356.52-41.92L356.52-41.92L356.52-41.92Q356.52-41.13 356.41-40.33L356.41-40.33L356.41-40.33Q356.30-39.53 356.30-38.60L356.30-38.60L356.30-38.60Q356.30-36.96 356.66-35.40L356.66-35.40L356.66-35.40Q357.02-33.83 357.02-32.22L357.02-32.22L357.02-32.22Q357.02-30.51 356.12-29.32L356.12-29.32L356.12-29.32Q355.23-28.12 353.38-28.12L353.38-28.12L353.38-28.12Q352.42-28.12 351.79-28.36L351.79-28.36L351.79-28.36Q351.17-28.59 350.72-29.00L350.72-29.00L350.72-29.00Q350.28-29.41 349.96-29.96L349.96-29.96L349.96-29.96Q349.64-30.51 349.32-31.15L349.32-31.15L349.32-31.15Q348.89-32.01 348.30-32.92L348.30-32.92L348.30-32.92Q347.71-33.83 346.61-34.56L346.61-34.56L346.61-34.56Q345.50-35.29 343.68-35.75L343.68-35.75L343.68-35.75Q341.87-36.21 338.98-36.21L338.98-36.21L338.98-36.21Q335.59-36.21 333.04-34.95L333.04-34.95L333.04-34.95Q330.50-33.68 328.80-31.58L328.80-31.58L328.80-31.58Q327.11-29.48 326.25-26.73L326.25-26.73L326.25-26.73Q325.40-23.99 325.40-21.03L325.40-21.03L325.40-21.03Q325.40-18.75 326.18-16.22L326.18-16.22L326.18-16.22Q326.97-13.69 328.66-11.55L328.66-11.55L328.66-11.55Q330.35-9.41 332.97-8.02L332.97-8.02L332.97-8.02Q335.59-6.63 339.23-6.63L339.23-6.63L339.23-6.63Q340.58-6.63 342.08-6.95L342.08-6.95L342.08-6.95Q343.58-7.27 345.04-7.91L345.04-7.91L345.04-7.91Q346.50-8.55 347.82-9.50L347.82-9.50L347.82-9.50Q349.14-10.44 350.10-11.69L350.10-11.69L350.10-11.69Q350.71-12.44 351.72-13.08L351.72-13.08L351.72-13.08Q352.74-13.72 353.81-13.65L353.81-13.65L353.81-13.65Q354.88-13.58 355.59-13.21L355.59-13.21L355.59-13.21Q356.30-12.83 356.73-12.28L356.73-12.28L356.73-12.28Q357.16-11.73 357.30-11.07L357.30-11.07L357.30-11.07Q357.44-10.41 357.41-9.80L357.41-9.80L357.41-9.80Q357.30-8.27 356.55-7.00L356.55-7.00L356.55-7.00Q355.80-5.74 354.91-4.74L354.91-4.74L354.91-4.74Q353.27-3.10 351.31-2.00L351.31-2.00L351.31-2.00Q349.35-0.89 347.25-0.21L347.25-0.21L347.25-0.21Q345.15 0.46 343.01 0.75L343.01 0.75L343.01 0.75Q340.87 1.03 338.87 1.03L338.87 1.03L338.87 1.03Q334.06 1.03 330.01-0.77L330.01-0.77L330.01-0.77Q325.97-2.57 323.06-5.63L323.06-5.63L323.06-5.63Q320.16-8.70 318.54-12.81L318.54-12.81L318.54-12.81Q316.92-16.93 316.92-21.53ZM374.94-16.08L374.94-16.08L374.94-16.08Q375.62-13.40 376.96-11.60L376.96-11.60L376.96-11.60Q378.30-9.80 379.97-8.70L379.97-8.70L379.97-8.70Q381.65-7.59 383.52-7.11L383.52-7.11L383.52-7.11Q385.39-6.63 387.17-6.63L387.17-6.63L387.17-6.63Q389.95-6.63 392.13-7.11L392.13-7.11L392.13-7.11Q394.30-7.59 395.85-8.29L395.85-8.29L395.85-8.29Q397.40-8.98 398.36-9.73L398.36-9.73L398.36-9.73Q399.33-10.48 399.72-11.05L399.72-11.05L399.72-11.05Q400.07-11.58 400.52-12.07L400.52-12.07L400.52-12.07Q400.97-12.55 401.48-12.92L401.48-12.92L401.48-12.92Q402.00-13.30 402.52-13.51L402.52-13.51L402.52-13.51Q403.03-13.72 403.50-13.72L403.50-13.72L403.50-13.72Q405.28-13.72 406.26-12.67L406.26-12.67L406.26-12.67Q407.24-11.62 407.24-9.84L407.24-9.84L407.24-9.84Q407.24-9.16 406.74-8.13L406.74-8.13L406.74-8.13Q406.24-7.09 404.89-5.85L404.89-5.85L404.89-5.85Q403.39-4.46 401.55-3.21L401.55-3.21L401.55-3.21Q399.72-1.96 397.51-1.02L397.51-1.02L397.51-1.02Q395.30-0.07 392.71 0.48L392.71 0.48L392.71 0.48Q390.13 1.03 387.14 1.03L387.14 1.03L387.14 1.03Q383.61 1.03 380.68 0.09L380.68 0.09L380.68 0.09Q377.76-0.86 375.44-2.48L375.44-2.48L375.44-2.48Q373.13-4.10 371.42-6.24L371.42-6.24L371.42-6.24Q369.71-8.38 368.56-10.80L368.56-10.80L368.56-10.80Q367.42-13.22 366.85-15.79L366.85-15.79L366.85-15.79Q366.28-18.36 366.28-20.78L366.28-20.78L366.28-20.78Q366.28-26.06 367.99-30.32L367.99-30.32L367.99-30.32Q369.71-34.58 372.70-37.60L372.70-37.60L372.70-37.60Q375.69-40.63 379.79-42.27L379.79-42.27L379.79-42.27Q383.89-43.91 388.67-43.91L388.67-43.91L388.67-43.91Q392.09-43.91 395.08-42.90L395.08-42.90L395.08-42.90Q398.08-41.88 400.41-40.05L400.41-40.05L400.41-40.05Q402.75-38.21 404.33-35.66L404.33-35.66L404.33-35.66Q405.92-33.11 406.56-30.05L406.56-30.05L406.56-30.05Q407.27-29.44 407.61-28.46L407.61-28.46L407.61-28.46Q407.95-27.48 407.95-26.52L407.95-26.52L407.95-26.52Q407.95-24.92 406.86-23.90L406.86-23.90L406.86-23.90Q405.78-22.88 404.14-22.49L404.14-22.49L404.14-22.49Q400.54-21.56 396.94-20.78L396.94-20.78L396.94-20.78Q393.34-20.00 389.70-19.25L389.70-19.25L389.70-19.25Q386.07-18.50 382.38-17.72L382.38-17.72L382.38-17.72Q378.69-16.93 374.94-16.08ZM374.34-22.67L374.34-22.67L374.34-22.67Q380.40-24.10 386.60-25.34L386.60-25.34L386.60-25.34Q392.80-26.59 399.22-28.12L399.22-28.12L399.22-28.12Q398.61-29.76 397.58-31.24L397.58-31.24L397.58-31.24Q396.55-32.72 395.16-33.83L395.16-33.83L395.16-33.83Q393.77-34.93 392.07-35.57L392.07-35.57L392.07-35.57Q390.38-36.21 388.42-36.21L388.42-36.21L388.42-36.21Q385.39-36.21 382.91-35.23L382.91-35.23L382.91-35.23Q380.43-34.25 378.62-32.49L378.62-32.49L378.62-32.49Q376.80-30.73 375.69-28.21L375.69-28.21L375.69-28.21Q374.59-25.70 374.34-22.67ZM421.25-3.67L421.25-3.67L421.25-3.67Q421.25-5.88 421.35-8.34L421.35-8.34L421.35-8.34Q421.43-9.62 421.46-11.25L421.46-11.25L421.46-11.25Q421.50-12.87 421.50-14.47L421.50-14.47L421.50-14.47Q421.50-15.54 421.48-17.88L421.48-17.88L421.48-17.88Q421.46-20.21 421.44-23.42L421.44-23.42L421.44-23.42Q421.43-26.63 421.37-30.55L421.37-30.55L421.37-30.55Q421.32-34.47 421.26-38.73L421.26-38.73L421.26-38.73Q421.21-42.99 421.16-47.41L421.16-47.41L421.16-47.41Q421.10-51.83 421.03-56.07L421.03-56.07L421.03-56.07Q419.64-56.03 418.22-55.91L418.22-55.91L418.22-55.91Q416.79-55.78 415.29-55.78L415.29-55.78L415.29-55.78Q414.65-55.78 413.99-56.00L413.99-56.00L413.99-56.00Q413.33-56.21 412.80-56.66L412.80-56.66L412.80-56.66Q412.26-57.10 411.91-57.85L411.91-57.85L411.91-57.85Q411.55-58.60 411.55-59.67L411.55-59.67L411.55-59.67Q411.55-61.56 412.57-62.54L412.57-62.54L412.57-62.54Q413.58-63.52 414.94-63.52L414.94-63.52L414.94-63.52Q416.19-63.52 417.40-63.38L417.40-63.38L417.40-63.38Q418.61-63.23 419.96-63.23L419.96-63.23L419.96-63.23Q420.96-63.23 421.71-63.27L421.71-63.27L421.71-63.27Q422.46-63.30 423.15-63.36L423.15-63.36L423.15-63.36Q423.85-63.41 424.63-63.47L424.63-63.47L424.63-63.47Q425.42-63.52 426.52-63.52L426.52-63.52L426.52-63.52Q428.02-63.52 428.96-62.57L428.96-62.57L428.96-62.57Q429.91-61.63 429.91-59.67L429.91-59.67L429.91-59.67Q429.91-58.96 429.78-58.28L429.78-58.28L429.78-58.28Q429.66-57.60 429.50-56.92L429.50-56.92L429.50-56.92Q429.34-56.25 429.21-55.55L429.21-55.55L429.21-55.55Q429.09-54.86 429.05-54.14L429.05-54.14L429.05-7.41L429.05-7.41Q430.51-7.84 431.39-8.06L431.39-8.06L431.39-8.06Q432.26-8.27 432.90-8.27L432.90-8.27L432.90-8.27Q436.65-8.27 436.65-4.35L436.65-4.35L436.65-4.35Q436.65-2.74 435.56-1.87L435.56-1.87L435.56-1.87Q434.47-1.00 432.44-0.50L432.44-0.50L428.88 0.43L428.88 0.43Q427.66 0.82 426.99 0.93L426.99 0.93L426.99 0.93Q426.31 1.03 425.52 1.03L425.52 1.03L425.52 1.03Q424.38 1.03 423.58 0.61L423.58 0.61L423.58 0.61Q422.78 0.18 422.26-0.52L422.26-0.52L422.26-0.52Q421.75-1.21 421.50-2.03L421.50-2.03L421.50-2.03Q421.25-2.85 421.25-3.67Z" fill="url(#editing-glowing-gradient)"></path></g></g><style>text {
  font-size: 64px;
  font-family: Arial Black;
  dominant-baseline: central;
  text-anchor: middle;
}</style></svg>