<svg width="545.0150146484375px" height="128.48000183105466px" xmlns="http://www.w3.org/2000/svg" viewBox="-22.50750732421875 10.759999084472668 545.0150146484375 128.48000183105466" style="background: rgb(0, 0, 0);" preserveAspectRatio="xMidYMid"><defs><linearGradient id="editing-glowing-gradient" x1="0.8146601955249185" x2="0.18533980447508147" y1="0.8885729807284856" y2="0.11142701927151444"><stop offset="0" stop-color="#caacd4"></stop><stop offset="1" stop-color="#b06cc5"></stop></linearGradient><filter id="editing-glowing" x="-100%" y="-100%" width="300%" height="300%"><feGaussianBlur in="SourceGraphic" result="blur" stdDeviation="10"></feGaussianBlur><feMerge><feMergeNode in="blur"></feMergeNode><feMergeNode in="SourceGraphic"></feMergeNode></feMerge></filter></defs><g filter="url(#editing-glowing)"><g transform="translate(55.50001382827759, 106.23500442504883)"><path d="M6.19-3.53L6.19-3.53L6.19-3.53Q6.19-4.06 6.33-4.66L6.33-4.66L6.33-4.66Q6.47-5.25 6.63-5.75L6.63-5.75L6.91-6.75L6.19-44.13L6.19-44.13Q6.19-45.66 6.55-46.50L6.55-46.50L6.55-46.50Q6.91-47.34 7.47-47.75L7.47-47.75L7.47-47.75Q8.03-48.16 8.77-48.22L8.77-48.22L8.77-48.22Q9.50-48.28 10.25-48.28L10.25-48.28L26.72-48.28L26.72-48.28Q27.28-48.34 27.98-48.45L27.98-48.45L27.98-48.45Q28.69-48.56 28.97-48.56L28.97-48.56L28.97-48.56Q30.16-48.56 30.89-48.34L30.89-48.34L30.89-48.34Q31.63-48.13 32.05-47.70L32.05-47.70L32.05-47.70Q32.47-47.28 32.61-46.66L32.61-46.66L32.61-46.66Q32.75-46.03 32.75-45.19L32.75-45.19L32.75-45.19Q32.75-44 32.45-43.28L32.45-43.28L32.45-43.28Q32.16-42.56 31.64-42.17L31.64-42.17L31.64-42.17Q31.13-41.78 30.44-41.66L30.44-41.66L30.44-41.66Q29.75-41.53 28.97-41.53L28.97-41.53L28.97-41.53Q28.63-41.53 28.06-41.55L28.06-41.55L28.06-41.55Q27.50-41.56 26.88-41.63L26.88-41.63L26.88-41.63Q23.84-41.63 21.98-41.63L21.98-41.63L21.98-41.63Q20.13-41.63 19.02-41.61L19.02-41.61L19.02-41.61Q17.91-41.59 17.33-41.59L17.33-41.59L17.33-41.59Q16.75-41.59 16.31-41.59L16.31-41.59L13.41-41.59L13.41-31.69L13.41-31.69Q13.59-31.69 13.86-31.67L13.86-31.67L13.86-31.67Q14.13-31.66 14.69-31.66L14.69-31.66L14.69-31.66Q15.25-31.66 16.23-31.66L16.23-31.66L16.23-31.66Q17.22-31.66 18.88-31.66L18.88-31.66L18.88-31.66Q20.53-31.66 22.97-31.66L22.97-31.66L22.97-31.66Q25.41-31.66 28.88-31.66L28.88-31.66L28.88-31.66Q29.22-31.66 29.66-31.69L29.66-31.69L29.66-31.69Q30.09-31.72 30.53-31.78L30.53-31.78L30.53-31.78Q31.09-31.84 31.84-31.91L31.84-31.91L31.84-31.91Q32.59-31.97 33.47-31.97L33.47-31.97L33.47-31.97Q34.31-31.97 34.97-31.63L34.97-31.63L34.97-31.63Q35.63-31.28 36.08-30.77L36.08-30.77L36.08-30.77Q36.53-30.25 36.77-29.66L36.77-29.66L36.77-29.66Q37-29.06 37-28.53L37-28.53L37-28.53Q37-26.84 35.89-26.06L35.89-26.06L35.89-26.06Q34.78-25.28 33.03-25.28L33.03-25.28L13.41-25.25L13.41-6.53L13.41-6.53Q16.50-6.53 19.63-6.44L19.63-6.44L19.63-6.44Q22.75-6.34 26.16-6.34L26.16-6.34L26.16-6.34Q27.09-6.34 27.88-6.44L27.88-6.44L27.88-6.44Q28.66-6.53 29.38-6.66L29.38-6.66L29.38-6.66Q30.03-6.75 30.70-6.83L30.70-6.83L30.70-6.83Q31.38-6.91 32.19-6.91L32.19-6.91L32.19-6.91Q33.13-6.91 33.92-6.77L33.92-6.77L33.92-6.77Q34.72-6.63 35.31-6.27L35.31-6.27L35.31-6.27Q35.91-5.91 36.25-5.30L36.25-5.30L36.25-5.30Q36.59-4.69 36.59-3.75L36.59-3.75L36.59-3.75Q36.59-2.38 36.13-1.63L36.13-1.63L36.13-1.63Q35.66-0.88 34.86-0.52L34.86-0.52L34.86-0.52Q34.06-0.16 33.05-0.08L33.05-0.08L33.05-0.08Q32.03 0 30.94 0L30.94 0L9.91 0L9.91 0Q9.09 0 8.42-0.19L8.42-0.19L8.42-0.19Q7.75-0.38 7.25-0.80L7.25-0.80L7.25-0.80Q6.75-1.22 6.47-1.89L6.47-1.89L6.47-1.89Q6.19-2.56 6.19-3.53ZM50.09-2.28L50.09-2.28L50.09-2.28Q50.09-3.88 50.33-5.41L50.33-5.41L50.33-5.41Q50.56-6.94 50.56-8.66L50.56-8.66L50.56-8.66Q50.56-9.94 50.55-11.19L50.55-11.19L50.55-11.19Q50.53-12.44 50.52-13.84L50.52-13.84L50.52-13.84Q50.50-15.25 50.47-16.92L50.47-16.92L50.47-16.92Q50.44-18.59 50.39-20.72L50.39-20.72L50.39-20.72Q50.34-22.84 50.28-25.53L50.28-25.53L50.28-25.53Q50.22-28.22 50.16-31.69L50.16-31.69L50.16-31.69Q49.75-31.63 49.23-31.58L49.23-31.58L49.23-31.58Q48.72-31.53 47.94-31.53L47.94-31.53L47.94-31.53Q47.38-31.53 46.78-31.72L46.78-31.72L46.78-31.72Q46.19-31.91 45.72-32.30L45.72-32.30L45.72-32.30Q45.25-32.69 44.94-33.33L44.94-33.33L44.94-33.33Q44.63-33.97 44.63-34.91L44.63-34.91L44.63-34.91Q44.63-36.59 45.50-37.45L45.50-37.45L45.50-37.45Q46.38-38.31 47.63-38.31L47.63-38.31L47.63-38.31Q48.13-38.31 48.59-38.19L48.59-38.19L48.59-38.19Q49.06-38.06 49.59-38.06L49.59-38.06L49.59-38.06Q50.84-38.06 52.08-38.19L52.08-38.19L52.08-38.19Q53.31-38.31 54.69-38.31L54.69-38.31L54.69-38.31Q56.03-38.31 56.55-37.47L56.55-37.47L56.55-37.47Q57.06-36.63 57.06-35.09L57.06-35.09L57.06-34.47L57.06-34.47Q59.53-36.53 62.28-37.52L62.28-37.52L62.28-37.52Q65.03-38.50 67.41-38.50L67.41-38.50L67.41-38.50Q71.31-38.50 74.34-37.38L74.34-37.38L74.34-37.38Q77.38-36.25 79.50-34.03L79.50-34.03L79.50-34.03Q80.81-35.09 82.25-35.94L82.25-35.94L82.25-35.94Q83.69-36.78 85.14-37.34L85.14-37.34L85.14-37.34Q86.59-37.91 88-38.20L88-38.20L88-38.20Q89.41-38.50 90.69-38.50L90.69-38.50L90.69-38.50Q94.63-38.50 97.84-37.33L97.84-37.33L97.84-37.33Q101.06-36.16 103.36-33.88L103.36-33.88L103.36-33.88Q105.66-31.59 106.91-28.27L106.91-28.27L106.91-28.27Q108.16-24.94 108.16-20.59L108.16-20.59L108.16-20.59Q108.16-19.22 107.98-17.48L107.98-17.48L107.98-17.48Q107.81-15.75 107.50-13.92L107.50-13.92L107.50-13.92Q107.19-12.09 106.75-10.33L106.75-10.33L106.75-10.33Q106.31-8.56 105.81-7.16L105.81-7.16L105.81-7.16Q106.22-7.28 106.47-7.31L106.47-7.31L106.47-7.31Q106.72-7.34 106.91-7.34L106.91-7.34L106.91-7.34Q108-7.34 108.66-6.94L108.66-6.94L108.66-6.94Q109.31-6.53 109.67-5.97L109.67-5.97L109.67-5.97Q110.03-5.41 110.14-4.80L110.14-4.80L110.14-4.80Q110.25-4.19 110.25-3.78L110.25-3.78L110.25-3.78Q110.25-2.81 109.91-2.20L109.91-2.20L109.91-2.20Q109.56-1.59 108.70-1.17L108.70-1.17L108.70-1.17Q107.84-0.75 106.39-0.41L106.39-0.41L106.39-0.41Q104.94-0.06 102.72 0.41L102.72 0.41L102.72 0.41Q101.75 0.66 101.14 0.81L101.14 0.81L101.14 0.81Q100.53 0.97 100.03 0.97L100.03 0.97L100.03 0.97Q99.03 0.97 98.31 0.67L98.31 0.67L98.31 0.67Q97.59 0.38 97.14-0.11L97.14-0.11L97.14-0.11Q96.69-0.59 96.47-1.27L96.47-1.27L96.47-1.27Q96.25-1.94 96.25-2.69L96.25-2.69L96.25-2.69Q96.25-3.50 96.69-4.52L96.69-4.52L96.69-4.52Q97.13-5.53 97.84-6.34L97.84-6.34L97.84-6.34Q98.56-7.53 99.16-9.23L99.16-9.23L99.16-9.23Q99.75-10.94 100.17-12.88L100.17-12.88L100.17-12.88Q100.59-14.81 100.81-16.81L100.81-16.81L100.81-16.81Q101.03-18.81 101.03-20.59L101.03-20.59L101.03-20.59Q101.03-23.09 100.42-25.16L100.42-25.16L100.42-25.16Q99.81-27.22 98.52-28.69L98.52-28.69L98.52-28.69Q97.22-30.16 95.23-30.97L95.23-30.97L95.23-30.97Q93.25-31.78 90.53-31.78L90.53-31.78L90.53-31.78Q89.16-31.78 88.08-31.58L88.08-31.58L88.08-31.58Q87-31.38 86.08-31L86.08-31L86.08-31Q85.16-30.63 84.34-30.06L84.34-30.06L84.34-30.06Q83.53-29.50 82.72-28.75L82.72-28.75L82.72-28.75Q84-25.25 84-20.59L84-20.59L84-20.59Q84-19.19 83.81-17.41L83.81-17.41L83.81-17.41Q83.63-15.63 83.28-13.75L83.28-13.75L83.28-13.75Q82.94-11.88 82.41-10.06L82.41-10.06L82.41-10.06Q81.88-8.25 81.22-6.75L81.22-6.75L81.22-6.75Q81.72-6.84 82.25-7.05L82.25-7.05L82.25-7.05Q82.78-7.25 83.41-7.25L83.41-7.25L83.41-7.25Q84.44-7.25 85.08-6.84L85.08-6.84L85.08-6.84Q85.72-6.44 86.05-5.86L86.05-5.86L86.05-5.86Q86.38-5.28 86.48-4.61L86.48-4.61L86.48-4.61Q86.59-3.94 86.59-3.41L86.59-3.41L86.59-3.41Q86.59-2.41 86.20-1.83L86.20-1.83L86.20-1.83Q85.81-1.25 85.19-0.92L85.19-0.92L85.19-0.92Q84.56-0.59 83.75-0.45L83.75-0.45L83.75-0.45Q82.94-0.31 82.09-0.22L82.09-0.22L82.09-0.22Q81.25-0.13 80.45 0.02L80.45 0.02L80.45 0.02Q79.66 0.16 79.03 0.47L79.03 0.47L79.03 0.47Q78.94 0.53 78.59 0.61L78.59 0.61L78.59 0.61Q78.25 0.69 77.86 0.77L77.86 0.77L77.86 0.77Q77.47 0.84 77.08 0.91L77.08 0.91L77.08 0.91Q76.69 0.97 76.47 0.97L76.47 0.97L76.47 0.97Q75.44 0.97 74.72 0.59L74.72 0.59L74.72 0.59Q74 0.22 73.55-0.38L73.55-0.38L73.55-0.38Q73.09-0.97 72.89-1.69L72.89-1.69L72.89-1.69Q72.69-2.41 72.69-3.09L72.69-3.09L72.69-3.09Q72.69-3.91 72.94-4.73L72.94-4.73L72.94-4.73Q73.19-5.56 73.63-6.28L73.63-6.28L73.63-6.28Q74.31-7.53 74.91-9.27L74.91-9.27L74.91-9.27Q75.50-11 75.92-12.92L75.92-12.92L75.92-12.92Q76.34-14.84 76.59-16.83L76.59-16.83L76.59-16.83Q76.84-18.81 76.84-20.59L76.84-20.59L76.84-20.59Q76.84-23.09 76.36-25.16L76.36-25.16L76.36-25.16Q75.88-27.22 74.75-28.69L74.75-28.69L74.75-28.69Q73.63-30.16 71.80-30.97L71.80-30.97L71.80-30.97Q69.97-31.78 67.28-31.78L67.28-31.78L67.28-31.78Q64.63-31.78 62.08-30.64L62.08-30.64L62.08-30.64Q59.53-29.50 57.06-27L57.06-27L57.06-27Q57.06-25.59 57.05-23.52L57.05-23.52L57.05-23.52Q57.03-21.44 57.03-19.13L57.03-19.13L57.03-19.13Q57.03-16.81 57.03-14.53L57.03-14.53L57.03-14.53Q57.03-12.25 57.05-10.44L57.05-10.44L57.05-10.44Q57.06-8.63 57.08-7.52L57.08-7.52L57.08-7.52Q57.09-6.41 57.13-6.50L57.13-6.50L57.13-6.50Q57.69-6.66 58.05-6.77L58.05-6.77L58.05-6.77Q58.41-6.88 58.64-6.94L58.64-6.94L58.64-6.94Q58.88-7 59-7.02L59-7.02L59-7.02Q59.13-7.03 59.28-7.03L59.28-7.03L59.28-7.03Q60.97-7.03 61.84-6.20L61.84-6.20L61.84-6.20Q62.72-5.38 62.72-3.78L62.72-3.78L62.72-3.78Q62.72-2.59 62.25-1.91L62.25-1.91L62.25-1.91Q61.78-1.22 61.06-0.81L61.06-0.81L61.06-0.81Q60.34-0.41 59.44-0.23L59.44-0.23L59.44-0.23Q58.53-0.06 57.69 0.03L57.69 0.03L57.69 0.03Q57.16 0.09 56.59 0.25L56.59 0.25L56.59 0.25Q56.03 0.41 55.47 0.56L55.47 0.56L55.47 0.56Q54.91 0.72 54.34 0.84L54.34 0.84L54.34 0.84Q53.78 0.97 53.31 0.97L53.31 0.97L53.31 0.97Q51.47 0.97 50.78 0.11L50.78 0.11L50.78 0.11Q50.09-0.75 50.09-2.28ZM121.38-2.78L121.38-2.78L121.38-2.78Q121.38-3.88 121.41-4.97L121.41-4.97L121.41-4.97Q121.44-6.06 121.47-7.38L121.47-7.38L121.47-31.47L121.47-31.47Q121.47-32.34 121.28-33.23L121.28-33.23L121.28-33.23Q121.09-34.13 121.09-35.09L121.09-35.09L121.09-35.09Q121.09-36.75 122.28-37.63L122.28-37.63L122.28-37.63Q123.47-38.50 125.50-38.50L125.50-38.50L125.50-38.50Q126.38-38.50 127.03-38.20L127.03-38.20L127.03-38.20Q127.69-37.91 128.13-37.44L128.13-37.44L128.13-37.44Q128.56-36.97 128.78-36.38L128.78-36.38L128.78-36.38Q129-35.78 129-35.16L129-35.16L129-35.16Q129-34.63 128.92-34.08L128.92-34.08L128.92-34.08Q128.84-33.53 128.75-33L128.75-33L128.75-33Q133.53-34.19 136.89-35.16L136.89-35.16L136.89-35.16Q140.25-36.13 142.16-36.75L142.16-36.75L142.16-36.75Q142.56-37.47 143.30-37.98L143.30-37.98L143.30-37.98Q144.03-38.50 145.22-38.50L145.22-38.50L145.22-38.50Q146.94-38.50 147.95-37.61L147.95-37.61L147.95-37.61Q148.97-36.72 148.97-35.38L148.97-35.38L148.97-35.38Q148.97-34.84 148.91-34.28L148.91-34.28L148.91-34.28Q148.84-33.72 148.84-33.16L148.84-33.16L148.84-33.16Q148.66-31.25 148.77-29.28L148.77-29.28L148.77-29.28Q148.88-27.31 149.03-25.31L149.03-25.31L149.03-25.31Q149.09-24.69 149.11-23.98L149.11-23.98L149.11-23.98Q149.13-23.28 149.13-22.56L149.13-22.56L149.13-22.56Q149.13-21.81 148.75-21.31L148.75-21.31L148.75-21.31Q148.38-20.81 147.80-20.52L147.80-20.52L147.80-20.52Q147.22-20.22 146.53-20.09L146.53-20.09L146.53-20.09Q145.84-19.97 145.19-19.97L145.19-19.97L145.19-19.97Q144.25-19.97 143.63-20.30L143.63-20.30L143.63-20.30Q143-20.63 142.61-21.14L142.61-21.14L142.61-21.14Q142.22-21.66 142.05-22.30L142.05-22.30L142.05-22.30Q141.88-22.94 141.88-23.56L141.88-23.56L141.88-23.56Q141.88-25 141.91-26.48L141.91-26.48L141.91-26.48Q141.94-27.97 141.97-29.75L141.97-29.75L141.97-29.75Q140.78-29.47 138.70-29L138.70-29L138.70-29Q136.63-28.53 134.16-28L134.16-28L134.16-28Q132.75-27.66 131.38-27.36L131.38-27.36L131.38-27.36Q130-27.06 128.59-26.75L128.59-26.75L128.59-6.34L129.53-6.63L129.53-6.63Q130.16-6.84 130.72-7.02L130.72-7.02L130.72-7.02Q131.28-7.19 132-7.25L132-7.25L132-7.25Q132.59-7.19 133.17-6.97L133.17-6.97L133.17-6.97Q133.75-6.75 134.20-6.34L134.20-6.34L134.20-6.34Q134.66-5.94 134.94-5.33L134.94-5.33L134.94-5.33Q135.22-4.72 135.22-3.94L135.22-3.94L135.22-3.94Q135.22-3.22 134.98-2.56L134.98-2.56L134.98-2.56Q134.75-1.91 134.34-1.39L134.34-1.39L134.34-1.39Q133.94-0.88 133.39-0.55L133.39-0.55L133.39-0.55Q132.84-0.22 132.19-0.19L132.19-0.19L132.19-0.19Q131.75-0.13 131 0.02L131 0.02L131 0.02Q130.25 0.16 129.25 0.34L129.25 0.34L129.25 0.34Q127.66 0.66 126.67 0.78L126.67 0.78L126.67 0.78Q125.69 0.91 125.03 0.91L125.03 0.91L125.03 0.91Q124.31 0.91 123.64 0.67L123.64 0.67L123.64 0.67Q122.97 0.44 122.47-0.03L122.47-0.03L122.47-0.03Q121.97-0.50 121.67-1.19L121.67-1.19L121.67-1.19Q121.38-1.88 121.38-2.78ZM164.97-14.09L164.97-14.09L164.97-14.09Q165.56-11.75 166.73-10.17L166.73-10.17L166.73-10.17Q167.91-8.59 169.38-7.63L169.38-7.63L169.38-7.63Q170.84-6.66 172.48-6.23L172.48-6.23L172.48-6.23Q174.13-5.81 175.69-5.81L175.69-5.81L175.69-5.81Q178.13-5.81 180.03-6.23L180.03-6.23L180.03-6.23Q181.94-6.66 183.30-7.27L183.30-7.27L183.30-7.27Q184.66-7.88 185.50-8.53L185.50-8.53L185.50-8.53Q186.34-9.19 186.69-9.69L186.69-9.69L186.69-9.69Q187-10.16 187.39-10.58L187.39-10.58L187.39-10.58Q187.78-11 188.23-11.33L188.23-11.33L188.23-11.33Q188.69-11.66 189.14-11.84L189.14-11.84L189.14-11.84Q189.59-12.03 190-12.03L190-12.03L190-12.03Q191.56-12.03 192.42-11.11L192.42-11.11L192.42-11.11Q193.28-10.19 193.28-8.63L193.28-8.63L193.28-8.63Q193.28-8.03 192.84-7.13L192.84-7.13L192.84-7.13Q192.41-6.22 191.22-5.13L191.22-5.13L191.22-5.13Q189.91-3.91 188.30-2.81L188.30-2.81L188.30-2.81Q186.69-1.72 184.75-0.89L184.75-0.89L184.75-0.89Q182.81-0.06 180.55 0.42L180.55 0.42L180.55 0.42Q178.28 0.91 175.66 0.91L175.66 0.91L175.66 0.91Q172.56 0.91 170 0.08L170 0.08L170 0.08Q167.44-0.75 165.41-2.17L165.41-2.17L165.41-2.17Q163.38-3.59 161.88-5.47L161.88-5.47L161.88-5.47Q160.38-7.34 159.38-9.47L159.38-9.47L159.38-9.47Q158.38-11.59 157.88-13.84L157.88-13.84L157.88-13.84Q157.38-16.09 157.38-18.22L157.38-18.22L157.38-18.22Q157.38-22.84 158.88-26.58L158.88-26.58L158.88-26.58Q160.38-30.31 163-32.97L163-32.97L163-32.97Q165.63-35.63 169.22-37.06L169.22-37.06L169.22-37.06Q172.81-38.50 177-38.50L177-38.50L177-38.50Q180-38.50 182.63-37.61L182.63-37.61L182.63-37.61Q185.25-36.72 187.30-35.11L187.30-35.11L187.30-35.11Q189.34-33.50 190.73-31.27L190.73-31.27L190.73-31.27Q192.13-29.03 192.69-26.34L192.69-26.34L192.69-26.34Q193.31-25.81 193.61-24.95L193.61-24.95L193.61-24.95Q193.91-24.09 193.91-23.25L193.91-23.25L193.91-23.25Q193.91-21.84 192.95-20.95L192.95-20.95L192.95-20.95Q192-20.06 190.56-19.72L190.56-19.72L190.56-19.72Q187.41-18.91 184.25-18.22L184.25-18.22L184.25-18.22Q181.09-17.53 177.91-16.88L177.91-16.88L177.91-16.88Q174.72-16.22 171.48-15.53L171.48-15.53L171.48-15.53Q168.25-14.84 164.97-14.09ZM164.44-19.88L164.44-19.88L164.44-19.88Q169.75-21.13 175.19-22.22L175.19-22.22L175.19-22.22Q180.63-23.31 186.25-24.66L186.25-24.66L186.25-24.66Q185.72-26.09 184.81-27.39L184.81-27.39L184.81-27.39Q183.91-28.69 182.69-29.66L182.69-29.66L182.69-29.66Q181.47-30.63 179.98-31.19L179.98-31.19L179.98-31.19Q178.50-31.75 176.78-31.75L176.78-31.75L176.78-31.75Q174.13-31.75 171.95-30.89L171.95-30.89L171.95-30.89Q169.78-30.03 168.19-28.48L168.19-28.48L168.19-28.48Q166.59-26.94 165.63-24.73L165.63-24.73L165.63-24.73Q164.66-22.53 164.44-19.88ZM226.16 0L226.16 0ZM226.16-24.16L226.16-24.16L226.16-24.16Q226.16-29.72 227.73-34.31L227.73-34.31L227.73-34.31Q229.31-38.91 232.20-42.22L232.20-42.22L232.20-42.22Q235.09-45.53 239.17-47.36L239.17-47.36L239.17-47.36Q243.25-49.19 248.22-49.19L248.22-49.19L248.22-49.19Q253.47-49.19 257.48-47.36L257.48-47.36L257.48-47.36Q261.50-45.53 264.23-42.22L264.23-42.22L264.23-42.22Q266.97-38.91 268.38-34.31L268.38-34.31L268.38-34.31Q269.78-29.72 269.78-24.16L269.78-24.16L269.78-24.16Q269.78-18.88 268.25-14.30L268.25-14.30L268.25-14.30Q266.72-9.72 263.88-6.34L263.88-6.34L263.88-6.34Q261.03-2.97 257-1.03L257-1.03L257-1.03Q252.97 0.91 247.97 0.91L247.97 0.91L247.97 0.91Q244.66 0.91 241.75 0.03L241.75 0.03L241.75 0.03Q238.84-0.84 236.42-2.47L236.42-2.47L236.42-2.47Q234-4.09 232.09-6.36L232.09-6.36L232.09-6.36Q230.19-8.63 228.86-11.41L228.86-11.41L228.86-11.41Q227.53-14.19 226.84-17.41L226.84-17.41L226.84-17.41Q226.16-20.63 226.16-24.16ZM233.28-24.16L233.28-24.16L233.28-24.16Q233.28-21.81 233.72-19.52L233.72-19.52L233.72-19.52Q234.16-17.22 235.02-15.14L235.02-15.14L235.02-15.14Q235.88-13.06 237.14-11.30L237.14-11.30L237.14-11.30Q238.41-9.53 240.05-8.23L240.05-8.23L240.05-8.23Q241.69-6.94 243.70-6.20L243.70-6.20L243.70-6.20Q245.72-5.47 248.06-5.47L248.06-5.47L248.06-5.47Q250.53-5.47 252.56-6.20L252.56-6.20L252.56-6.20Q254.59-6.94 256.22-8.23L256.22-8.23L256.22-8.23Q257.84-9.53 259.05-11.30L259.05-11.30L259.05-11.30Q260.25-13.06 261.05-15.14L261.05-15.14L261.05-15.14Q261.84-17.22 262.23-19.52L262.23-19.52L262.23-19.52Q262.63-21.81 262.63-24.16L262.63-24.16L262.63-24.16Q262.63-27.91 261.75-31.27L261.75-31.27L261.75-31.27Q260.88-34.63 259.08-37.19L259.08-37.19L259.08-37.19Q257.28-39.75 254.55-41.25L254.55-41.25L254.55-41.25Q251.81-42.75 248.06-42.75L248.06-42.75L248.06-42.75Q244.53-42.75 241.78-41.41L241.78-41.41L241.78-41.41Q239.03-40.06 237.14-37.63L237.14-37.63L237.14-37.63Q235.25-35.19 234.27-31.77L234.27-31.77L234.27-31.77Q233.28-28.34 233.28-24.16ZM240.53-51.53L240.53-51.53L240.53-51.53Q239.97-51.53 239.36-51.77L239.36-51.77L239.36-51.77Q238.75-52 238.25-52.44L238.25-52.44L238.25-52.44Q237.75-52.88 237.42-53.47L237.42-53.47L237.42-53.47Q237.09-54.06 237.09-54.81L237.09-54.81L237.09-54.81Q237.09-55.81 237.61-56.98L237.61-56.98L237.61-56.98Q238.13-58.16 238.92-59.16L238.92-59.16L238.92-59.16Q239.72-60.16 240.66-60.83L240.66-60.83L240.66-60.83Q241.59-61.50 242.41-61.50L242.41-61.50L242.41-61.50Q243.13-61.50 243.80-61.19L243.80-61.19L243.80-61.19Q244.47-60.88 244.98-60.36L244.98-60.36L244.98-60.36Q245.50-59.84 245.81-59.20L245.81-59.20L245.81-59.20Q246.13-58.56 246.13-57.91L246.13-57.91L246.13-57.91Q246.13-57.09 245.56-55.98L245.56-55.98L245.56-55.98Q245-54.88 244.16-53.89L244.16-53.89L244.16-53.89Q243.31-52.91 242.33-52.22L242.33-52.22L242.33-52.22Q241.34-51.53 240.53-51.53ZM254.19-51.31L254.19-51.31L254.19-51.31Q253.63-51.31 253.02-51.55L253.02-51.55L253.02-51.55Q252.41-51.78 251.91-52.22L251.91-52.22L251.91-52.22Q251.41-52.66 251.08-53.27L251.08-53.27L251.08-53.27Q250.75-53.88 250.75-54.59L250.75-54.59L250.75-54.59Q250.75-55.59 251.36-56.73L251.36-56.73L251.36-56.73Q251.97-57.88 252.88-58.86L252.88-58.86L252.88-58.86Q253.78-59.84 254.80-60.48L254.80-60.48L254.80-60.48Q255.81-61.13 256.66-61.13L256.66-61.13L256.66-61.13Q257.38-61.13 258-60.81L258-60.81L258-60.81Q258.63-60.50 259.08-59.98L259.08-59.98L259.08-59.98Q259.53-59.47 259.78-58.80L259.78-58.80L259.78-58.80Q260.03-58.13 260.03-57.38L260.03-57.38L260.03-57.34L260.03-57.34Q260.03-56.53 259.42-55.48L259.42-55.48L259.42-55.48Q258.81-54.44 257.92-53.52L257.92-53.52L257.92-53.52Q257.03-52.59 256.02-51.95L256.02-51.95L256.02-51.95Q255-51.31 254.19-51.31ZM277.84-18.88L277.84-18.88L277.84-18.88Q277.84-21.41 278.36-23.84L278.36-23.84L278.36-23.84Q278.88-26.28 279.95-28.47L279.95-28.47L279.95-28.47Q281.03-30.66 282.67-32.48L282.67-32.48L282.67-32.48Q284.31-34.31 286.58-35.66L286.58-35.66L286.58-35.66Q288.84-37 291.73-37.75L291.73-37.75L291.73-37.75Q294.63-38.50 298.22-38.50L298.22-38.50L298.22-38.50Q300.47-38.50 302.41-38L302.41-38L302.41-38Q304.34-37.50 305.66-36.66L305.66-36.66L305.66-36.66Q305.81-37.59 306.20-38.19L306.20-38.19L306.20-38.19Q306.59-38.78 307.11-39.11L307.11-39.11L307.11-39.11Q307.63-39.44 308.22-39.56L308.22-39.56L308.22-39.56Q308.81-39.69 309.38-39.69L309.38-39.69L309.38-39.69Q310.88-39.69 311.72-38.88L311.72-38.88L311.72-38.88Q312.56-38.06 312.56-36.75L312.56-36.75L312.56-36.75Q312.56-36.06 312.47-35.36L312.47-35.36L312.47-35.36Q312.38-34.66 312.38-33.84L312.38-33.84L312.38-33.84Q312.38-32.41 312.69-31.03L312.69-31.03L312.69-31.03Q313-29.66 313-28.25L313-28.25L313-28.25Q313-26.75 312.22-25.70L312.22-25.70L312.22-25.70Q311.44-24.66 309.81-24.66L309.81-24.66L309.81-24.66Q308.97-24.66 308.42-24.86L308.42-24.86L308.42-24.86Q307.88-25.06 307.48-25.42L307.48-25.42L307.48-25.42Q307.09-25.78 306.81-26.27L306.81-26.27L306.81-26.27Q306.53-26.75 306.25-27.31L306.25-27.31L306.25-27.31Q305.88-28.06 305.36-28.86L305.36-28.86L305.36-28.86Q304.84-29.66 303.88-30.30L303.88-30.30L303.88-30.30Q302.91-30.94 301.31-31.34L301.31-31.34L301.31-31.34Q299.72-31.75 297.19-31.75L297.19-31.75L297.19-31.75Q294.22-31.75 291.98-30.64L291.98-30.64L291.98-30.64Q289.75-29.53 288.27-27.69L288.27-27.69L288.27-27.69Q286.78-25.84 286.03-23.44L286.03-23.44L286.03-23.44Q285.28-21.03 285.28-18.44L285.28-18.44L285.28-18.44Q285.28-16.44 285.97-14.22L285.97-14.22L285.97-14.22Q286.66-12 288.14-10.13L288.14-10.13L288.14-10.13Q289.63-8.25 291.92-7.03L291.92-7.03L291.92-7.03Q294.22-5.81 297.41-5.81L297.41-5.81L297.41-5.81Q298.59-5.81 299.91-6.09L299.91-6.09L299.91-6.09Q301.22-6.38 302.50-6.94L302.50-6.94L302.50-6.94Q303.78-7.50 304.94-8.33L304.94-8.33L304.94-8.33Q306.09-9.16 306.94-10.25L306.94-10.25L306.94-10.25Q307.47-10.91 308.36-11.47L308.36-11.47L308.36-11.47Q309.25-12.03 310.19-11.97L310.19-11.97L310.19-11.97Q311.13-11.91 311.75-11.58L311.75-11.58L311.75-11.58Q312.38-11.25 312.75-10.77L312.75-10.77L312.75-10.77Q313.13-10.28 313.25-9.70L313.25-9.70L313.25-9.70Q313.38-9.13 313.34-8.59L313.34-8.59L313.34-8.59Q313.25-7.25 312.59-6.14L312.59-6.14L312.59-6.14Q311.94-5.03 311.16-4.16L311.16-4.16L311.16-4.16Q309.72-2.72 308-1.75L308-1.75L308-1.75Q306.28-0.78 304.44-0.19L304.44-0.19L304.44-0.19Q302.59 0.41 300.72 0.66L300.72 0.66L300.72 0.66Q298.84 0.91 297.09 0.91L297.09 0.91L297.09 0.91Q292.88 0.91 289.33-0.67L289.33-0.67L289.33-0.67Q285.78-2.25 283.23-4.94L283.23-4.94L283.23-4.94Q280.69-7.63 279.27-11.23L279.27-11.23L279.27-11.23Q277.84-14.84 277.84-18.88ZM328.72-14.09L328.72-14.09L328.72-14.09Q329.31-11.75 330.48-10.17L330.48-10.17L330.48-10.17Q331.66-8.59 333.13-7.63L333.13-7.63L333.13-7.63Q334.59-6.66 336.23-6.23L336.23-6.23L336.23-6.23Q337.88-5.81 339.44-5.81L339.44-5.81L339.44-5.81Q341.88-5.81 343.78-6.23L343.78-6.23L343.78-6.23Q345.69-6.66 347.05-7.27L347.05-7.27L347.05-7.27Q348.41-7.88 349.25-8.53L349.25-8.53L349.25-8.53Q350.09-9.19 350.44-9.69L350.44-9.69L350.44-9.69Q350.75-10.16 351.14-10.58L351.14-10.58L351.14-10.58Q351.53-11 351.98-11.33L351.98-11.33L351.98-11.33Q352.44-11.66 352.89-11.84L352.89-11.84L352.89-11.84Q353.34-12.03 353.75-12.03L353.75-12.03L353.75-12.03Q355.31-12.03 356.17-11.11L356.17-11.11L356.17-11.11Q357.03-10.19 357.03-8.63L357.03-8.63L357.03-8.63Q357.03-8.03 356.59-7.13L356.59-7.13L356.59-7.13Q356.16-6.22 354.97-5.13L354.97-5.13L354.97-5.13Q353.66-3.91 352.05-2.81L352.05-2.81L352.05-2.81Q350.44-1.72 348.50-0.89L348.50-0.89L348.50-0.89Q346.56-0.06 344.30 0.42L344.30 0.42L344.30 0.42Q342.03 0.91 339.41 0.91L339.41 0.91L339.41 0.91Q336.31 0.91 333.75 0.08L333.75 0.08L333.75 0.08Q331.19-0.75 329.16-2.17L329.16-2.17L329.16-2.17Q327.13-3.59 325.63-5.47L325.63-5.47L325.63-5.47Q324.13-7.34 323.13-9.47L323.13-9.47L323.13-9.47Q322.13-11.59 321.63-13.84L321.63-13.84L321.63-13.84Q321.13-16.09 321.13-18.22L321.13-18.22L321.13-18.22Q321.13-22.84 322.63-26.58L322.63-26.58L322.63-26.58Q324.13-30.31 326.75-32.97L326.75-32.97L326.75-32.97Q329.38-35.63 332.97-37.06L332.97-37.06L332.97-37.06Q336.56-38.50 340.75-38.50L340.75-38.50L340.75-38.50Q343.75-38.50 346.38-37.61L346.38-37.61L346.38-37.61Q349-36.72 351.05-35.11L351.05-35.11L351.05-35.11Q353.09-33.50 354.48-31.27L354.48-31.27L354.48-31.27Q355.88-29.03 356.44-26.34L356.44-26.34L356.44-26.34Q357.06-25.81 357.36-24.95L357.36-24.95L357.36-24.95Q357.66-24.09 357.66-23.25L357.66-23.25L357.66-23.25Q357.66-21.84 356.70-20.95L356.70-20.95L356.70-20.95Q355.75-20.06 354.31-19.72L354.31-19.72L354.31-19.72Q351.16-18.91 348-18.22L348-18.22L348-18.22Q344.84-17.53 341.66-16.88L341.66-16.88L341.66-16.88Q338.47-16.22 335.23-15.53L335.23-15.53L335.23-15.53Q332-14.84 328.72-14.09ZM328.19-19.88L328.19-19.88L328.19-19.88Q333.50-21.13 338.94-22.22L338.94-22.22L338.94-22.22Q344.38-23.31 350-24.66L350-24.66L350-24.66Q349.47-26.09 348.56-27.39L348.56-27.39L348.56-27.39Q347.66-28.69 346.44-29.66L346.44-29.66L346.44-29.66Q345.22-30.63 343.73-31.19L343.73-31.19L343.73-31.19Q342.25-31.75 340.53-31.75L340.53-31.75L340.53-31.75Q337.88-31.75 335.70-30.89L335.70-30.89L335.70-30.89Q333.53-30.03 331.94-28.48L331.94-28.48L331.94-28.48Q330.34-26.94 329.38-24.73L329.38-24.73L329.38-24.73Q328.41-22.53 328.19-19.88ZM369.31-3.22L369.31-3.22L369.31-3.22Q369.31-5.16 369.41-7.31L369.41-7.31L369.41-7.31Q369.47-8.44 369.50-9.86L369.50-9.86L369.50-9.86Q369.53-11.28 369.53-12.69L369.53-12.69L369.53-12.69Q369.53-13.63 369.52-15.67L369.52-15.67L369.52-15.67Q369.50-17.72 369.48-20.53L369.48-20.53L369.48-20.53Q369.47-23.34 369.42-26.78L369.42-26.78L369.42-26.78Q369.38-30.22 369.33-33.95L369.33-33.95L369.33-33.95Q369.28-37.69 369.23-41.56L369.23-41.56L369.23-41.56Q369.19-45.44 369.13-49.16L369.13-49.16L369.13-49.16Q367.91-49.13 366.66-49.02L366.66-49.02L366.66-49.02Q365.41-48.91 364.09-48.91L364.09-48.91L364.09-48.91Q363.53-48.91 362.95-49.09L362.95-49.09L362.95-49.09Q362.38-49.28 361.91-49.67L361.91-49.67L361.91-49.67Q361.44-50.06 361.13-50.72L361.13-50.72L361.13-50.72Q360.81-51.38 360.81-52.31L360.81-52.31L360.81-52.31Q360.81-53.97 361.70-54.83L361.70-54.83L361.70-54.83Q362.59-55.69 363.78-55.69L363.78-55.69L363.78-55.69Q364.88-55.69 365.94-55.56L365.94-55.56L365.94-55.56Q367-55.44 368.19-55.44L368.19-55.44L368.19-55.44Q369.06-55.44 369.72-55.47L369.72-55.47L369.72-55.47Q370.38-55.50 370.98-55.55L370.98-55.55L370.98-55.55Q371.59-55.59 372.28-55.64L372.28-55.64L372.28-55.64Q372.97-55.69 373.94-55.69L373.94-55.69L373.94-55.69Q375.25-55.69 376.08-54.86L376.08-54.86L376.08-54.86Q376.91-54.03 376.91-52.31L376.91-52.31L376.91-52.31Q376.91-51.69 376.80-51.09L376.80-51.09L376.80-51.09Q376.69-50.50 376.55-49.91L376.55-49.91L376.55-49.91Q376.41-49.31 376.30-48.70L376.30-48.70L376.30-48.70Q376.19-48.09 376.16-47.47L376.16-47.47L376.16-6.50L376.16-6.50Q377.44-6.88 378.20-7.06L378.20-7.06L378.20-7.06Q378.97-7.25 379.53-7.25L379.53-7.25L379.53-7.25Q382.81-7.25 382.81-3.81L382.81-3.81L382.81-3.81Q382.81-2.41 381.86-1.64L381.86-1.64L381.86-1.64Q380.91-0.88 379.13-0.44L379.13-0.44L376 0.38L376 0.38Q374.94 0.72 374.34 0.81L374.34 0.81L374.34 0.81Q373.75 0.91 373.06 0.91L373.06 0.91L373.06 0.91Q372.06 0.91 371.36 0.53L371.36 0.53L371.36 0.53Q370.66 0.16 370.20-0.45L370.20-0.45L370.20-0.45Q369.75-1.06 369.53-1.78L369.53-1.78L369.53-1.78Q369.31-2.50 369.31-3.22Z" fill="url(#editing-glowing-gradient)"></path></g></g><style>text {
  font-size: 64px;
  font-family: Arial Black;
  dominant-baseline: central;
  text-anchor: middle;
}</style></svg>